<svg xmlns="http://www.w3.org/2000/svg" xmlns:xlink="http://www.w3.org/1999/xlink" width="500" zoomAndPan="magnify" viewBox="0 0 375 374.999991" height="500" preserveAspectRatio="xMidYMid meet" version="1.0"><defs><clipPath id="5945b53fef"><path d="M 250.515625 29.164062 L 374.996094 29.164062 L 374.996094 217.875 L 250.515625 217.875 Z M 250.515625 29.164062 " clip-rule="nonzero"/></clipPath><clipPath id="130f79ace1"><path d="M 0.515625 0.164062 L 124.996094 0.164062 L 124.996094 188.875 L 0.515625 188.875 Z M 0.515625 0.164062 " clip-rule="nonzero"/></clipPath><clipPath id="4bc1597f40"><rect x="0" width="125" y="0" height="189"/></clipPath><clipPath id="7eb648447e"><path d="M 124.476562 217.875 L 250.515625 217.875 L 250.515625 345.839844 L 124.476562 345.839844 Z M 124.476562 217.875 " clip-rule="nonzero"/></clipPath><clipPath id="37055e7614"><path d="M 0.476562 0.875 L 126.515625 0.875 L 126.515625 128.839844 L 0.476562 128.839844 Z M 0.476562 0.875 " clip-rule="nonzero"/></clipPath><clipPath id="fe9749ff3a"><rect x="0" width="127" y="0" height="129"/></clipPath><clipPath id="c222fd927f"><path d="M 0 29.164062 L 124.476562 29.164062 L 124.476562 217.875 L 0 217.875 Z M 0 29.164062 " clip-rule="nonzero"/></clipPath><clipPath id="72691bd8ef"><path d="M 0 0.164062 L 124.476562 0.164062 L 124.476562 188.875 L 0 188.875 Z M 0 0.164062 " clip-rule="nonzero"/></clipPath><clipPath id="8b79b540b3"><rect x="0" width="125" y="0" height="189"/></clipPath></defs><g clip-path="url(#5945b53fef)"><g transform="matrix(1, 0, 0, 1, 250, 29)"><g clip-path="url(#4bc1597f40)"><g clip-path="url(#130f79ace1)"><path fill="#ffffff" d="M 124.996094 0.164062 L 124.996094 188.828125 L 0.515625 188.828125 L 0.515625 0.164062 Z M 124.996094 0.164062 " fill-opacity="1" fill-rule="nonzero"/></g></g></g></g><g clip-path="url(#7eb648447e)"><g transform="matrix(1, 0, 0, 1, 124, 217)"><g clip-path="url(#fe9749ff3a)"><g clip-path="url(#37055e7614)"><path fill="#ffffff" d="M 126.515625 0.875 L 126.515625 128.882812 L 0.476562 128.882812 L 0.476562 0.875 Z M 126.515625 0.875 " fill-opacity="1" fill-rule="nonzero"/></g></g></g></g><g clip-path="url(#c222fd927f)"><g transform="matrix(1, 0, 0, 1, 0, 29)"><g clip-path="url(#8b79b540b3)"><g clip-path="url(#72691bd8ef)"><path fill="#ffffff" d="M 124.476562 0.164062 L 124.476562 188.828125 L -0.00390625 188.828125 L -0.00390625 0.164062 Z M 124.476562 0.164062 " fill-opacity="1" fill-rule="nonzero"/></g></g></g></g></svg>