<svg xmlns="http://www.w3.org/2000/svg" xmlns:xlink="http://www.w3.org/1999/xlink" width="500" zoomAndPan="magnify" viewBox="0 0 375 374.999991" height="500" preserveAspectRatio="xMidYMid meet" version="1.0"><defs><clipPath id="8d0d9d0460"><path d="M 250.515625 29.164062 L 374.996094 29.164062 L 374.996094 217.875 L 250.515625 217.875 Z M 250.515625 29.164062 " clip-rule="nonzero"/></clipPath><clipPath id="8697a6e71f"><path d="M 0.515625 0.164062 L 124.996094 0.164062 L 124.996094 188.875 L 0.515625 188.875 Z M 0.515625 0.164062 " clip-rule="nonzero"/></clipPath><clipPath id="c2510da4c9"><rect x="0" width="125" y="0" height="189"/></clipPath><clipPath id="8de792f8b2"><path d="M 124.476562 217.875 L 250.515625 217.875 L 250.515625 345.839844 L 124.476562 345.839844 Z M 124.476562 217.875 " clip-rule="nonzero"/></clipPath><clipPath id="01355e9bda"><path d="M 0.476562 0.875 L 126.515625 0.875 L 126.515625 128.839844 L 0.476562 128.839844 Z M 0.476562 0.875 " clip-rule="nonzero"/></clipPath><clipPath id="980e04c61f"><rect x="0" width="127" y="0" height="129"/></clipPath><clipPath id="1bb224e963"><path d="M 0 29.164062 L 124.476562 29.164062 L 124.476562 217.875 L 0 217.875 Z M 0 29.164062 " clip-rule="nonzero"/></clipPath><clipPath id="07ecfb7d28"><path d="M 0 0.164062 L 124.476562 0.164062 L 124.476562 188.875 L 0 188.875 Z M 0 0.164062 " clip-rule="nonzero"/></clipPath><clipPath id="794c45137a"><rect x="0" width="125" y="0" height="189"/></clipPath></defs><g clip-path="url(#8d0d9d0460)"><g transform="matrix(1, 0, 0, 1, 250, 29)"><g clip-path="url(#c2510da4c9)"><g clip-path="url(#8697a6e71f)"><path fill="#000000" d="M 124.996094 0.164062 L 124.996094 188.828125 L 0.515625 188.828125 L 0.515625 0.164062 Z M 124.996094 0.164062 " fill-opacity="1" fill-rule="nonzero"/></g></g></g></g><g clip-path="url(#8de792f8b2)"><g transform="matrix(1, 0, 0, 1, 124, 217)"><g clip-path="url(#980e04c61f)"><g clip-path="url(#01355e9bda)"><path fill="#000000" d="M 126.515625 0.875 L 126.515625 128.882812 L 0.476562 128.882812 L 0.476562 0.875 Z M 126.515625 0.875 " fill-opacity="1" fill-rule="nonzero"/></g></g></g></g><g clip-path="url(#1bb224e963)"><g transform="matrix(1, 0, 0, 1, 0, 29)"><g clip-path="url(#794c45137a)"><g clip-path="url(#07ecfb7d28)"><path fill="#000000" d="M 124.476562 0.164062 L 124.476562 188.828125 L -0.00390625 188.828125 L -0.00390625 0.164062 Z M 124.476562 0.164062 " fill-opacity="1" fill-rule="nonzero"/></g></g></g></g></svg>