<svg xmlns="http://www.w3.org/2000/svg" xmlns:xlink="http://www.w3.org/1999/xlink" width="500" zoomAndPan="magnify" viewBox="0 0 375 374.999991" height="500" preserveAspectRatio="xMidYMid meet" version="1.0"><defs><clipPath id="70c861598d"><path d="M 63.019531 0 L 187.5 0 L 187.5 124.480469 L 63.019531 124.480469 Z M 63.019531 0 " clip-rule="nonzero"/></clipPath><clipPath id="889c989bf4"><path d="M 0.0195312 0 L 124.5 0 L 124.5 124.480469 L 0.0195312 124.480469 Z M 0.0195312 0 " clip-rule="nonzero"/></clipPath><clipPath id="d9a12b0139"><rect x="0" width="125" y="0" height="125"/></clipPath><clipPath id="f24da415b6"><path d="M 187.5 124.480469 L 311.980469 124.480469 L 311.980469 250.519531 L 187.5 250.519531 Z M 187.5 124.480469 " clip-rule="nonzero"/></clipPath><clipPath id="dc2a4fca6b"><path d="M 0.5 0.480469 L 124.980469 0.480469 L 124.980469 126.519531 L 0.5 126.519531 Z M 0.5 0.480469 " clip-rule="nonzero"/></clipPath><clipPath id="a7e52c9be3"><rect x="0" width="125" y="0" height="127"/></clipPath><clipPath id="ecf2dbd2c9"><path d="M 63.019531 250.519531 L 187.5 250.519531 L 187.5 375 L 63.019531 375 Z M 63.019531 250.519531 " clip-rule="nonzero"/></clipPath><clipPath id="c66edce44a"><path d="M 0.0195312 0.519531 L 124.5 0.519531 L 124.5 125 L 0.0195312 125 Z M 0.0195312 0.519531 " clip-rule="nonzero"/></clipPath><clipPath id="8f7da6c650"><rect x="0" width="125" y="0" height="125"/></clipPath></defs><g clip-path="url(#70c861598d)"><g transform="matrix(1, 0, 0, 1, 63, 0)"><g clip-path="url(#d9a12b0139)"><g clip-path="url(#889c989bf4)"><path fill="#000000" d="M 0.0195312 0 L 124.5 0 L 124.5 124.480469 L 0.0195312 124.480469 Z M 0.0195312 0 " fill-opacity="1" fill-rule="nonzero"/></g></g></g></g><g clip-path="url(#f24da415b6)"><g transform="matrix(1, 0, 0, 1, 187, 124)"><g clip-path="url(#a7e52c9be3)"><g clip-path="url(#dc2a4fca6b)"><path fill="#000000" d="M 0.5 0.480469 L 124.980469 0.480469 L 124.980469 126.421875 L 0.5 126.421875 Z M 0.5 0.480469 " fill-opacity="1" fill-rule="nonzero"/></g></g></g></g><g clip-path="url(#ecf2dbd2c9)"><g transform="matrix(1, 0, 0, 1, 63, 250)"><g clip-path="url(#8f7da6c650)"><g clip-path="url(#c66edce44a)"><path fill="#000000" d="M 0.0195312 0.519531 L 124.5 0.519531 L 124.5 125 L 0.0195312 125 Z M 0.0195312 0.519531 " fill-opacity="1" fill-rule="nonzero"/></g></g></g></g></svg>