<svg xmlns="http://www.w3.org/2000/svg" xmlns:xlink="http://www.w3.org/1999/xlink" width="1920" zoomAndPan="magnify" viewBox="0 0 1440 351.749992" height="469" preserveAspectRatio="xMidYMid meet" version="1.0"><defs><g/><clipPath id="69310ba0dd"><path d="M 453 0 L 1439.488281 0 L 1439.488281 351.5 L 453 351.5 Z M 453 0 " clip-rule="nonzero"/></clipPath><clipPath id="901cf71824"><rect x="0" width="987" y="0" height="352"/></clipPath><clipPath id="fd5418a62f"><path d="M 235.597656 26.773438 L 352.414062 26.773438 L 352.414062 203.867188 L 235.597656 203.867188 Z M 235.597656 26.773438 " clip-rule="nonzero"/></clipPath><clipPath id="7f4a6aeea3"><path d="M 0.597656 0.773438 L 117.414062 0.773438 L 117.414062 177.867188 L 0.597656 177.867188 Z M 0.597656 0.773438 " clip-rule="nonzero"/></clipPath><clipPath id="2850c670a8"><rect x="0" width="118" y="0" height="178"/></clipPath><clipPath id="ec3488b0c3"><path d="M 117.324219 203.867188 L 235.601562 203.867188 L 235.601562 323.953125 L 117.324219 323.953125 Z M 117.324219 203.867188 " clip-rule="nonzero"/></clipPath><clipPath id="effea3378a"><path d="M 0.324219 0.867188 L 118.601562 0.867188 L 118.601562 120.953125 L 0.324219 120.953125 Z M 0.324219 0.867188 " clip-rule="nonzero"/></clipPath><clipPath id="30406d35a1"><rect x="0" width="119" y="0" height="121"/></clipPath><clipPath id="813aa3ed89"><path d="M 0.511719 26.773438 L 117.320312 26.773438 L 117.320312 203.867188 L 0.511719 203.867188 Z M 0.511719 26.773438 " clip-rule="nonzero"/></clipPath><clipPath id="8a86596010"><path d="M 0.511719 0.773438 L 117.320312 0.773438 L 117.320312 177.867188 L 0.511719 177.867188 Z M 0.511719 0.773438 " clip-rule="nonzero"/></clipPath><clipPath id="dc673cffac"><rect x="0" width="118" y="0" height="178"/></clipPath></defs><g clip-path="url(#69310ba0dd)"><g transform="matrix(1, 0, 0, 1, 453, 0)"><g clip-path="url(#901cf71824)"><g fill="#ffffff" fill-opacity="1"><g transform="translate(0.28339, 291.078285)"><g><path d="M 90.984375 2.375 C 76.171875 2.375 63.128906 -0.535156 51.859375 -6.359375 C 40.597656 -12.191406 31.90625 -20.441406 25.78125 -31.109375 C 19.65625 -41.785156 16.59375 -54.039062 16.59375 -67.875 L 16.59375 -139.59375 C 16.59375 -153.625 19.65625 -165.921875 25.78125 -176.484375 C 31.90625 -187.054688 40.597656 -195.253906 51.859375 -201.078125 C 63.128906 -206.910156 76.171875 -209.828125 90.984375 -209.828125 C 105.609375 -209.828125 118.5 -206.960938 129.65625 -201.234375 C 140.820312 -195.503906 149.46875 -187.695312 155.59375 -177.8125 C 161.71875 -167.9375 164.78125 -156.773438 164.78125 -144.328125 L 164.78125 -143.15625 C 164.78125 -139.988281 163.203125 -138.40625 160.046875 -138.40625 L 135.4375 -138.40625 C 134.0625 -138.40625 132.925781 -138.648438 132.03125 -139.140625 C 131.144531 -139.640625 130.703125 -140.285156 130.703125 -141.078125 L 130.703125 -143.453125 C 130.703125 -154.117188 127.09375 -162.910156 119.875 -169.828125 C 112.664062 -176.742188 103.035156 -180.203125 90.984375 -180.203125 C 78.929688 -180.203125 69.25 -176.59375 61.9375 -169.375 C 54.625 -162.164062 50.96875 -152.632812 50.96875 -140.78125 L 50.96875 -66.6875 C 50.96875 -54.832031 54.820312 -45.296875 62.53125 -38.078125 C 70.238281 -30.867188 80.21875 -27.265625 92.46875 -27.265625 C 104.320312 -27.265625 113.65625 -30.375 120.46875 -36.59375 C 127.289062 -42.820312 130.703125 -51.367188 130.703125 -62.234375 L 130.703125 -80.3125 C 130.703125 -81.5 130.109375 -82.09375 128.921875 -82.09375 L 93.953125 -82.09375 C 90.785156 -82.09375 89.203125 -83.675781 89.203125 -86.84375 L 89.203125 -106.40625 C 89.203125 -109.5625 90.785156 -111.140625 93.953125 -111.140625 L 160.046875 -111.140625 C 163.203125 -111.140625 164.78125 -109.5625 164.78125 -106.40625 L 164.78125 -69.640625 C 164.78125 -46.921875 158.113281 -29.238281 144.78125 -16.59375 C 131.445312 -3.945312 113.515625 2.375 90.984375 2.375 Z M 90.984375 2.375 "/></g></g></g><g fill="#ffffff" fill-opacity="1"><g transform="translate(178.381997, 291.078285)"><g><path d="M 88.90625 -153.21875 C 94.632812 -153.21875 99.875 -152.132812 104.625 -149.96875 C 106.988281 -148.78125 107.875 -146.800781 107.28125 -144.03125 L 102.546875 -119.4375 C 102.347656 -117.851562 101.800781 -116.863281 100.90625 -116.46875 C 100.019531 -116.070312 98.691406 -116.070312 96.921875 -116.46875 C 94.546875 -117.257812 91.382812 -117.65625 87.4375 -117.65625 C 85.0625 -117.65625 83.179688 -117.554688 81.796875 -117.359375 C 73.503906 -116.960938 66.585938 -114.046875 61.046875 -108.609375 C 55.515625 -103.179688 52.75 -96.125 52.75 -87.4375 L 52.75 -4.734375 C 52.75 -1.578125 51.171875 0 48.015625 0 L 23.125 0 C 19.957031 0 18.375 -1.578125 18.375 -4.734375 L 18.375 -146.703125 C 18.375 -149.867188 19.957031 -151.453125 23.125 -151.453125 L 48.015625 -151.453125 C 51.171875 -151.453125 52.75 -149.867188 52.75 -146.703125 L 52.75 -135.140625 C 52.75 -134.359375 52.945312 -133.867188 53.34375 -133.671875 C 53.738281 -133.472656 54.132812 -133.765625 54.53125 -134.546875 C 62.832031 -146.992188 74.289062 -153.21875 88.90625 -153.21875 Z M 88.90625 -153.21875 "/></g></g></g><g fill="#ffffff" fill-opacity="1"><g transform="translate(286.841135, 291.078285)"><g><path d="M 76.171875 -153.8125 C 88.617188 -153.8125 99.632812 -151.640625 109.21875 -147.296875 C 118.800781 -142.953125 126.160156 -136.972656 131.296875 -129.359375 C 136.429688 -121.753906 139 -113.113281 139 -103.4375 L 139 -4.734375 C 139 -1.578125 137.421875 0 134.265625 0 L 109.359375 0 C 106.203125 0 104.625 -1.578125 104.625 -4.734375 L 104.625 -12.15625 C 104.625 -12.945312 104.425781 -13.390625 104.03125 -13.484375 C 103.632812 -13.585938 103.140625 -13.441406 102.546875 -13.046875 C 91.878906 -2.765625 77.65625 2.375 59.875 2.375 C 45.25 2.375 33.242188 -1.378906 23.859375 -8.890625 C 14.472656 -16.398438 9.78125 -27.5625 9.78125 -42.375 C 9.78125 -57.789062 15.160156 -69.796875 25.921875 -78.390625 C 36.691406 -86.984375 51.859375 -91.28125 71.421875 -91.28125 L 102.84375 -91.28125 C 104.03125 -91.28125 104.625 -91.875 104.625 -93.0625 L 104.625 -99.875 C 104.625 -107.582031 102.300781 -113.5625 97.65625 -117.8125 C 93.007812 -122.0625 86.144531 -124.1875 77.0625 -124.1875 C 70.144531 -124.1875 64.410156 -122.945312 59.859375 -120.46875 C 55.316406 -118 52.257812 -114.59375 50.6875 -110.25 C 49.894531 -107.488281 48.113281 -106.207031 45.34375 -106.40625 L 18.671875 -109.65625 C 17.085938 -109.851562 15.898438 -110.296875 15.109375 -110.984375 C 14.316406 -111.679688 14.019531 -112.523438 14.21875 -113.515625 C 16 -125.367188 22.566406 -135.046875 33.921875 -142.546875 C 45.285156 -150.054688 59.367188 -153.8125 76.171875 -153.8125 Z M 69.359375 -24.890625 C 79.035156 -24.890625 87.332031 -27.457031 94.25 -32.59375 C 101.164062 -37.738281 104.625 -44.257812 104.625 -52.15625 L 104.625 -65.796875 C 104.625 -66.984375 104.03125 -67.578125 102.84375 -67.578125 L 78.25 -67.578125 C 67.769531 -67.578125 59.46875 -65.597656 53.34375 -61.640625 C 47.21875 -57.691406 44.15625 -52.0625 44.15625 -44.75 C 44.15625 -38.425781 46.523438 -33.535156 51.265625 -30.078125 C 56.015625 -26.617188 62.046875 -24.890625 69.359375 -24.890625 Z M 69.359375 -24.890625 "/></g></g></g><g fill="#ffffff" fill-opacity="1"><g transform="translate(440.047384, 291.078285)"><g><path d="M 90.984375 -153.8125 C 107.191406 -153.8125 120.082031 -149.066406 129.65625 -139.578125 C 139.238281 -130.097656 144.03125 -117.160156 144.03125 -100.765625 L 144.03125 -4.734375 C 144.03125 -1.578125 142.453125 0 139.296875 0 L 114.40625 0 C 111.238281 0 109.65625 -1.578125 109.65625 -4.734375 L 109.65625 -93.65625 C 109.65625 -102.738281 107.035156 -110.097656 101.796875 -115.734375 C 96.566406 -121.367188 89.703125 -124.1875 81.203125 -124.1875 C 72.710938 -124.1875 65.847656 -121.414062 60.609375 -115.875 C 55.367188 -110.34375 52.75 -103.035156 52.75 -93.953125 L 52.75 -4.734375 C 52.75 -1.578125 51.171875 0 48.015625 0 L 23.125 0 C 19.957031 0 18.375 -1.578125 18.375 -4.734375 L 18.375 -202.71875 C 18.375 -205.882812 19.957031 -207.46875 23.125 -207.46875 L 48.015625 -207.46875 C 51.171875 -207.46875 52.75 -205.882812 52.75 -202.71875 L 52.75 -138.703125 C 52.75 -137.910156 52.945312 -137.414062 53.34375 -137.21875 C 53.738281 -137.019531 54.132812 -137.21875 54.53125 -137.8125 C 62.832031 -148.476562 74.984375 -153.8125 90.984375 -153.8125 Z M 90.984375 -153.8125 "/></g></g></g><g fill="#ffffff" fill-opacity="1"><g transform="translate(599.773075, 291.078285)"><g><path d="M 76.171875 -153.8125 C 88.617188 -153.8125 99.632812 -151.640625 109.21875 -147.296875 C 118.800781 -142.953125 126.160156 -136.972656 131.296875 -129.359375 C 136.429688 -121.753906 139 -113.113281 139 -103.4375 L 139 -4.734375 C 139 -1.578125 137.421875 0 134.265625 0 L 109.359375 0 C 106.203125 0 104.625 -1.578125 104.625 -4.734375 L 104.625 -12.15625 C 104.625 -12.945312 104.425781 -13.390625 104.03125 -13.484375 C 103.632812 -13.585938 103.140625 -13.441406 102.546875 -13.046875 C 91.878906 -2.765625 77.65625 2.375 59.875 2.375 C 45.25 2.375 33.242188 -1.378906 23.859375 -8.890625 C 14.472656 -16.398438 9.78125 -27.5625 9.78125 -42.375 C 9.78125 -57.789062 15.160156 -69.796875 25.921875 -78.390625 C 36.691406 -86.984375 51.859375 -91.28125 71.421875 -91.28125 L 102.84375 -91.28125 C 104.03125 -91.28125 104.625 -91.875 104.625 -93.0625 L 104.625 -99.875 C 104.625 -107.582031 102.300781 -113.5625 97.65625 -117.8125 C 93.007812 -122.0625 86.144531 -124.1875 77.0625 -124.1875 C 70.144531 -124.1875 64.410156 -122.945312 59.859375 -120.46875 C 55.316406 -118 52.257812 -114.59375 50.6875 -110.25 C 49.894531 -107.488281 48.113281 -106.207031 45.34375 -106.40625 L 18.671875 -109.65625 C 17.085938 -109.851562 15.898438 -110.296875 15.109375 -110.984375 C 14.316406 -111.679688 14.019531 -112.523438 14.21875 -113.515625 C 16 -125.367188 22.566406 -135.046875 33.921875 -142.546875 C 45.285156 -150.054688 59.367188 -153.8125 76.171875 -153.8125 Z M 69.359375 -24.890625 C 79.035156 -24.890625 87.332031 -27.457031 94.25 -32.59375 C 101.164062 -37.738281 104.625 -44.257812 104.625 -52.15625 L 104.625 -65.796875 C 104.625 -66.984375 104.03125 -67.578125 102.84375 -67.578125 L 78.25 -67.578125 C 67.769531 -67.578125 59.46875 -65.597656 53.34375 -61.640625 C 47.21875 -57.691406 44.15625 -52.0625 44.15625 -44.75 C 44.15625 -38.425781 46.523438 -33.535156 51.265625 -30.078125 C 56.015625 -26.617188 62.046875 -24.890625 69.359375 -24.890625 Z M 69.359375 -24.890625 "/></g></g></g><g fill="#ffffff" fill-opacity="1"><g transform="translate(752.979324, 291.078285)"><g><path d="M 180.5 -153.8125 C 195.707031 -153.8125 207.609375 -149.21875 216.203125 -140.03125 C 224.796875 -130.84375 229.09375 -118.050781 229.09375 -101.65625 L 229.09375 -4.734375 C 229.09375 -1.578125 227.515625 0 224.359375 0 L 199.75 0 C 196.59375 0 195.015625 -1.578125 195.015625 -4.734375 L 195.015625 -94.546875 C 195.015625 -103.628906 192.59375 -110.835938 187.75 -116.171875 C 182.914062 -121.515625 176.445312 -124.1875 168.34375 -124.1875 C 160.238281 -124.1875 153.617188 -121.515625 148.484375 -116.171875 C 143.347656 -110.835938 140.78125 -103.726562 140.78125 -94.84375 L 140.78125 -4.734375 C 140.78125 -1.578125 139.195312 0 136.03125 0 L 111.4375 0 C 108.269531 0 106.6875 -1.578125 106.6875 -4.734375 L 106.6875 -94.546875 C 106.6875 -103.628906 104.21875 -110.835938 99.28125 -116.171875 C 94.34375 -121.515625 87.820312 -124.1875 79.71875 -124.1875 C 72.21875 -124.1875 66.046875 -122.007812 61.203125 -117.65625 C 56.359375 -113.3125 53.539062 -107.382812 52.75 -99.875 L 52.75 -4.734375 C 52.75 -1.578125 51.171875 0 48.015625 0 L 23.125 0 C 19.957031 0 18.375 -1.578125 18.375 -4.734375 L 18.375 -146.703125 C 18.375 -149.867188 19.957031 -151.453125 23.125 -151.453125 L 48.015625 -151.453125 C 51.171875 -151.453125 52.75 -149.867188 52.75 -146.703125 L 52.75 -138.703125 C 52.75 -137.910156 52.992188 -137.414062 53.484375 -137.21875 C 53.984375 -137.019531 54.429688 -137.316406 54.828125 -138.109375 C 63.328125 -148.578125 75.773438 -153.8125 92.171875 -153.8125 C 101.847656 -153.8125 110.289062 -151.882812 117.5 -148.03125 C 124.71875 -144.1875 130.304688 -138.507812 134.265625 -131 C 134.648438 -130.40625 135.085938 -130.109375 135.578125 -130.109375 C 136.078125 -130.109375 136.425781 -130.503906 136.625 -131.296875 C 141.175781 -138.804688 147.300781 -144.4375 155 -148.1875 C 162.707031 -151.9375 171.207031 -153.8125 180.5 -153.8125 Z M 180.5 -153.8125 "/></g></g></g></g></g></g><g clip-path="url(#fd5418a62f)"><g transform="matrix(1, 0, 0, 1, 235, 26)"><g clip-path="url(#2850c670a8)"><g clip-path="url(#7f4a6aeea3)"><path fill="#ffffff" d="M 117.414062 0.773438 L 117.414062 177.824219 L 0.597656 177.824219 L 0.597656 0.773438 Z M 117.414062 0.773438 " fill-opacity="1" fill-rule="nonzero"/></g></g></g></g><g clip-path="url(#ec3488b0c3)"><g transform="matrix(1, 0, 0, 1, 117, 203)"><g clip-path="url(#30406d35a1)"><g clip-path="url(#effea3378a)"><path fill="#ffffff" d="M 118.601562 0.867188 L 118.601562 120.996094 L 0.324219 120.996094 L 0.324219 0.867188 Z M 118.601562 0.867188 " fill-opacity="1" fill-rule="nonzero"/></g></g></g></g><g clip-path="url(#813aa3ed89)"><g transform="matrix(1, 0, 0, 1, 0, 26)"><g clip-path="url(#dc673cffac)"><g clip-path="url(#8a86596010)"><path fill="#ffffff" d="M 117.320312 0.773438 L 117.320312 177.824219 L 0.503906 177.824219 L 0.503906 0.773438 Z M 117.320312 0.773438 " fill-opacity="1" fill-rule="nonzero"/></g></g></g></g></svg>